<svg viewBox="0 0 1024 1024" xmlns="http://www.w3.org/2000/svg" fill="currentColor">
  <path d="M159.14585414162968 265.66785979733334h195.2903453202963c13.315251313777777 0 22.19208430933333-8.876834209185184 22.19208430933333-22.19208430933333s-8.876834209185184-22.19208430933333-22.19208430933333-22.19208430933333h-195.2903453202963c-13.315251313777777 0-22.19208430933333 8.876834209185184-22.19208430933333 22.19208430933333s11.096042154666666 22.19208430933333 22.19208430933333 22.19208430933333zM425.45086949451854 265.66785979733334h195.2903453202963c13.315251313777777 0 22.19208430933333-8.876834209185184 22.19208430933333-22.19208430933333s-8.876834209185184-22.19208430933333-22.19208430933333-22.19208430933333h-195.2903453202963c-13.315251313777777 0-22.19208430933333 8.876834209185184-22.19208430933333 22.19208430933333s11.096042154666666 22.19208430933333 22.19208430933333 22.19208430933333zM691.755886061037 265.66785979733334h195.29034410666665c13.315251313777777 0 22.19208430933333-8.876834209185184 22.19208552296296-22.19208430933333s-8.876834209185184-22.19208430933333-22.19208552296296-22.19208430933333h-195.29034410666665c-13.315251313777777 0-22.19208430933333 8.876834209185184-22.19208552296296 22.19208430933333s11.096042154666666 22.19208430933333 22.19208552296296 22.19208430933333zM159.14585414162968 458.7389971721482h195.2903453202963c13.315251313777777 0 22.19208430933333-8.876834209185184 22.19208430933333-22.19208552296296s-8.876834209185184-22.19208430933333-22.19208430933333-22.19208430933333h-195.2903453202963c-13.315251313777777 0-22.19208430933333 8.876834209185184-22.19208430933333 22.19208430933333s11.096042154666666 22.19208430933333 22.19208430933333 22.19208552296296zM425.45086949451854 458.7389971721482h195.2903453202963c13.315251313777777 0 22.19208430933333-8.876834209185184 22.19208430933333-22.19208552296296s-8.876834209185184-22.19208430933333-22.19208430933333-22.19208430933333h-195.2903453202963c-13.315251313777777 0-22.19208430933333 8.876834209185184-22.19208430933333 22.19208430933333s11.096042154666666 22.19208430933333 22.19208430933333 22.19208552296296zM691.755886061037 458.7389971721482h195.29034410666665c13.315251313777777 0 22.19208430933333-8.876834209185184 22.19208552296296-22.19208552296296s-8.876834209185184-22.19208430933333-22.19208552296296-22.19208430933333h-195.29034410666665c-13.315251313777777 0-22.19208430933333 8.876834209185184-22.19208552296296 22.19208430933333s11.096042154666666 22.19208430933333 22.19208552296296 22.19208552296296zM159.14585414162968 651.8101333333334h195.2903453202963c13.315251313777777 0 22.19208430933333-8.876834209185184 22.19208430933333-22.19208430933333s-8.876834209185184-22.19208430933333-22.19208430933333-22.19208552296296h-195.2903453202963c-13.315251313777777 0-22.19208430933333 8.876834209185184-22.19208430933333 22.19208552296296s11.096042154666666 22.19208430933333 22.19208430933333 22.19208430933333zM425.45086949451854 651.8101333333334h195.2903453202963c13.315251313777777 0 22.19208430933333-8.876834209185184 22.19208430933333-22.19208430933333s-8.876834209185184-22.19208430933333-22.19208430933333-22.19208552296296h-195.2903453202963c-13.315251313777777 0-22.19208430933333 8.876834209185184-22.19208430933333 22.19208552296296s11.096042154666666 22.19208430933333 22.19208430933333 22.19208430933333zM691.755886061037 651.8101333333334h195.29034410666665c13.315251313777777 0 22.19208430933333-8.876834209185184 22.19208552296296-22.19208430933333s-8.876834209185184-22.19208430933333-22.19208552296296-22.19208552296296h-195.29034410666665c-13.315251313777777 0-22.19208430933333 8.876834209185184-22.19208552296296 22.19208552296296s11.096042154666666 22.19208430933333 22.19208552296296 22.19208430933333zM425.45086949451854 844.8812694945186h195.2903453202963c13.315251313777777 0 22.19208430933333-8.876834209185184 22.19208430933333-22.19208430933333s-8.876834209185184-22.19208430933333-22.19208430933333-22.19208430933333h-195.2903453202963c-13.315251313777777 0-22.19208430933333 8.876834209185184-22.19208430933333 22.19208430933333s11.096042154666666 22.19208430933333 22.19208430933333 22.19208430933333z" />
</svg>
